<?xml version="1.0" encoding="UTF-8" standalone="no"?>
<svg
   xmlns:dc="http://purl.org/dc/elements/1.1/"
   xmlns:cc="http://creativecommons.org/ns#"
   xmlns:rdf="http://www.w3.org/1999/02/22-rdf-syntax-ns#"
   xmlns:svg="http://www.w3.org/2000/svg"
   xmlns="http://www.w3.org/2000/svg"
   xmlns:xlink="http://www.w3.org/1999/xlink"
   xmlns:sodipodi="http://sodipodi.sourceforge.net/DTD/sodipodi-0.dtd"
   xmlns:inkscape="http://www.inkscape.org/namespaces/inkscape"
   width="425.0108"
   height="70.008217"
   id="svg4753"
   version="1.1"
   inkscape:version="0.91 r13725"
   sodipodi:docname="sheeshmacs.svg">
  <metadata
     id="metadata5231">
    <rdf:RDF>
      <cc:Work
         rdf:about="">
        <dc:format>image/svg+xml</dc:format>
        <dc:type
           rdf:resource="http://purl.org/dc/dcmitype/StillImage" />
        <dc:title />
      </cc:Work>
    </rdf:RDF>
  </metadata>
  <defs
     id="defs5229">
    <linearGradient
       inkscape:collect="always"
       id="linearGradient7894">
      <stop
         style="stop-color:#6d59b5;stop-opacity:1"
         offset="0"
         id="stop7896" />
      <stop
         style="stop-color:#9355b1;stop-opacity:1"
         offset="1"
         id="stop7898" />
    </linearGradient>
    <linearGradient
       inkscape:collect="always"
       id="linearGradient7886">
      <stop
         style="stop-color:#556ab1;stop-opacity:1"
         offset="0"
         id="stop7888" />
      <stop
         style="stop-color:#7258b4;stop-opacity:1"
         offset="1"
         id="stop7890" />
    </linearGradient>
    <linearGradient
       inkscape:collect="always"
       xlink:href="#linearGradient7886"
       id="linearGradient7892"
       x1="24.047913"
       y1="30"
       x2="178.04791"
       y2="30"
       gradientUnits="userSpaceOnUse"
       gradientTransform="translate(-20.999583,9.9997295)" />
    <linearGradient
       inkscape:collect="always"
       xlink:href="#linearGradient7894"
       id="linearGradient7900"
       x1="169.52396"
       y1="30"
       x2="318.04791"
       y2="30"
       gradientUnits="userSpaceOnUse"
       gradientTransform="translate(-20.999583,9.9997295)" />
  </defs>
  <sodipodi:namedview
     pagecolor="#ffffff"
     bordercolor="#666666"
     borderopacity="1"
     objecttolerance="10"
     gridtolerance="10"
     guidetolerance="10"
     inkscape:pageopacity="0"
     inkscape:pageshadow="2"
     inkscape:window-width="1920"
     inkscape:window-height="1017"
     id="namedview5227"
     showgrid="false"
     inkscape:zoom="2.3333333"
     inkscape:cx="166.69614"
     inkscape:cy="46.47592"
     inkscape:window-x="1912"
     inkscape:window-y="-8"
     inkscape:window-maximized="1"
     inkscape:current-layer="layer3"
     fit-margin-top="5"
     fit-margin-left="5"
     fit-margin-right="5"
     fit-margin-bottom="8" />
  <g
     inkscape:groupmode="layer"
     id="layer3"
     inkscape:label="Layer 1"
     style="display:inline"
     transform="translate(5.5036881,-14.493886)">
    <rect
       style="opacity:1;fill:#f5f5ed;fill-opacity:1;stroke:none;stroke-width:1;stroke-linecap:round;stroke-linejoin:miter;stroke-miterlimit:4;stroke-dasharray:none;stroke-opacity:1"
       id="rect9723"
       width="445.00104"
       height="90.910164"
       x="-15.500519"
       y="2.3802724" />
    <g
       id="g9725">
      <path
         sodipodi:nodetypes="ccccccccccccccccccccccccccccccccccccc"
         inkscape:connector-curvature="0"
         id="path5779"
         d="M 134,60 96,60 90,50 96,40 84,40 72,60 60,60 72,40 60,40 48,60 36,60 54,30 30,30 36,40 24,60 0,60 6,50 l 12,0 6,-10 -6,-10 6,-10 48,0 -6,10 12,0 6,-10 12,0 -6,10 12,0 6,-10 24,0 -6,10 -6,0 -6,10 -6,0 -6,10 26,0 z"
         style="color:#000000;clip-rule:nonzero;display:inline;overflow:visible;visibility:visible;opacity:1;isolation:auto;mix-blend-mode:normal;color-interpolation:sRGB;color-interpolation-filters:linearRGB;solid-color:#000000;solid-opacity:1;fill:url(#linearGradient7892);fill-opacity:1;fill-rule:evenodd;stroke:none;stroke-width:3.54330707;stroke-linecap:butt;stroke-linejoin:miter;stroke-miterlimit:4;stroke-dasharray:none;stroke-dashoffset:0;stroke-opacity:1;color-rendering:auto;image-rendering:auto;shape-rendering:auto;text-rendering:auto;enable-background:accumulate" />
      <path
         sodipodi:nodetypes="ccccccccccccccccccccccccccccccc"
         inkscape:connector-curvature="0"
         id="path5777"
         d="m 132,60 48,0 12,-20 -6,-10 24,0 -18,30 12,0 12,-20 12,0 -12,20 34,0 -6,-10 -10,0 18,-30 -12,0 -6,10 -12,0 6,-10 -48,0 -6,10 6,10 -6,10 -36,0 6,-10 6,0 6,-10 6,0 6,-10 -24,0 -18,30 z"
         style="color:#000000;clip-rule:nonzero;display:inline;overflow:visible;visibility:visible;opacity:1;isolation:auto;mix-blend-mode:normal;color-interpolation:sRGB;color-interpolation-filters:linearRGB;solid-color:#000000;solid-opacity:1;fill:url(#linearGradient7900);fill-opacity:1;fill-rule:evenodd;stroke:none;stroke-width:3.54330707;stroke-linecap:butt;stroke-linejoin:miter;stroke-miterlimit:4;stroke-dasharray:none;stroke-dashoffset:0;stroke-opacity:1;color-rendering:auto;image-rendering:auto;shape-rendering:auto;text-rendering:auto;enable-background:accumulate" />
      <path
         sodipodi:nodetypes="ccccccccccccccccc"
         inkscape:connector-curvature="0"
         id="path5775"
         d="m 348,60 42,0 12,-20 -6,-10 12,0 6,-10 -24,0 -6,10 6,10 -6,10 -30,0 6,-10 12,0 6,-10 -24,0 -12,20 z"
         style="color:#000000;clip-rule:nonzero;display:inline;overflow:visible;visibility:visible;opacity:1;isolation:auto;mix-blend-mode:normal;color-interpolation:sRGB;color-interpolation-filters:linearRGB;solid-color:#000000;solid-opacity:1;fill:#b7638e;fill-opacity:1;fill-rule:evenodd;stroke:none;stroke-width:3.54330707;stroke-linecap:butt;stroke-linejoin:miter;stroke-miterlimit:4;stroke-dasharray:none;stroke-dashoffset:0;stroke-opacity:1;color-rendering:auto;image-rendering:auto;shape-rendering:auto;text-rendering:auto;enable-background:accumulate" />
      <path
         sodipodi:nodetypes="cccccccccccccccccccccc"
         inkscape:connector-curvature="0"
         id="path5773"
         d="m 346,60 -16,0 -6,-10 -6,0 -6,10 -24,0 -6,-10 -6,0 -6,10 -6,-10 -6,0 -6,10 -6,-10 12,-20 30,0 12,20 6,0 12,-20 6,0 12,20 4,0 z"
         style="color:#000000;clip-rule:nonzero;display:inline;overflow:visible;visibility:visible;opacity:1;isolation:auto;mix-blend-mode:normal;color-interpolation:sRGB;color-interpolation-filters:linearRGB;solid-color:#000000;solid-opacity:1;fill:#ae55b1;fill-opacity:1;fill-rule:evenodd;stroke:none;stroke-width:3.54330707;stroke-linecap:butt;stroke-linejoin:miter;stroke-miterlimit:4;stroke-dasharray:none;stroke-dashoffset:0;stroke-opacity:1;color-rendering:auto;image-rendering:auto;shape-rendering:auto;text-rendering:auto;enable-background:accumulate" />
    </g>
    <text
       xml:space="preserve"
       style="font-style:normal;font-weight:normal;font-size:40px;line-height:125%;font-family:sans-serif;letter-spacing:0px;word-spacing:0px;fill:#300a5f;fill-opacity:1;stroke:none;stroke-width:1px;stroke-linecap:butt;stroke-linejoin:miter;stroke-opacity:1;"
       x="96.399345"
       y="78.220123"
       id="text7902"
       sodipodi:linespacing="125%"><tspan
         sodipodi:role="line"
         id="tspan7904"
         x="96.399345"
         y="78.220123"
         style="font-style:normal;font-variant:normal;font-weight:normal;font-stretch:normal;font-size:17.5px;font-family:monospace;-inkscape-font-specification:monospace;fill:#300a5f;fill-opacity:1;">the sheeshmost editor</tspan></text>
  </g>
  <g
     inkscape:groupmode="layer"
     id="layer4"
     inkscape:label="Layer 2"
     style="display:none"
     transform="translate(5.5036881,-14.493886)"
     sodipodi:insensitive="true">
    <line
       x1="30"
       y1="20"
       x2="24"
       y2="20"
       id="line7933"
       style="stroke:#000000;stroke-linecap:round" />
    <line
       x1="36"
       y1="20"
       x2="30"
       y2="20"
       id="line7935"
       style="stroke:#000000;stroke-linecap:round" />
    <line
       x1="42"
       y1="20"
       x2="36"
       y2="20"
       id="line7937"
       style="stroke:#000000;stroke-linecap:round" />
    <line
       x1="48"
       y1="20"
       x2="42"
       y2="20"
       id="line7939"
       style="stroke:#000000;stroke-linecap:round" />
    <line
       x1="54"
       y1="20"
       x2="48"
       y2="20"
       id="line7941"
       style="stroke:#000000;stroke-linecap:round" />
    <line
       x1="60"
       y1="20"
       x2="54"
       y2="20"
       id="line7943"
       style="stroke:#000000;stroke-linecap:round" />
    <line
       x1="66"
       y1="20"
       x2="60"
       y2="20"
       id="line7945"
       style="stroke:#000000;stroke-linecap:round" />
    <line
       x1="72"
       y1="20"
       x2="66"
       y2="20"
       id="line7947"
       style="stroke:#000000;stroke-linecap:round" />
    <line
       x1="90"
       y1="20"
       x2="84"
       y2="20"
       id="line7949"
       style="stroke:#000000;stroke-linecap:round" />
    <line
       x1="96"
       y1="20"
       x2="90"
       y2="20"
       id="line7951"
       style="stroke:#000000;stroke-linecap:round" />
    <line
       x1="114"
       y1="20"
       x2="108"
       y2="20"
       id="line7953"
       style="stroke:#000000;stroke-linecap:round" />
    <line
       x1="120"
       y1="20"
       x2="114"
       y2="20"
       id="line7955"
       style="stroke:#000000;stroke-linecap:round" />
    <line
       x1="126"
       y1="20"
       x2="120"
       y2="20"
       id="line7957"
       style="stroke:#000000;stroke-linecap:round" />
    <line
       x1="132"
       y1="20"
       x2="126"
       y2="20"
       id="line7959"
       style="stroke:#000000;stroke-linecap:round" />
    <line
       x1="150"
       y1="20"
       x2="144"
       y2="20"
       id="line7961"
       style="stroke:#000000;stroke-linecap:round" />
    <line
       x1="156"
       y1="20"
       x2="150"
       y2="20"
       id="line7963"
       style="stroke:#000000;stroke-linecap:round" />
    <line
       x1="162"
       y1="20"
       x2="156"
       y2="20"
       id="line7965"
       style="stroke:#000000;stroke-linecap:round" />
    <line
       x1="168"
       y1="20"
       x2="162"
       y2="20"
       id="line7967"
       style="stroke:#000000;stroke-linecap:round" />
    <line
       x1="186"
       y1="20"
       x2="180"
       y2="20"
       id="line7969"
       style="stroke:#000000;stroke-linecap:round" />
    <line
       x1="192"
       y1="20"
       x2="186"
       y2="20"
       id="line7971"
       style="stroke:#000000;stroke-linecap:round" />
    <line
       x1="198"
       y1="20"
       x2="192"
       y2="20"
       id="line7973"
       style="stroke:#000000;stroke-linecap:round" />
    <line
       x1="204"
       y1="20"
       x2="198"
       y2="20"
       id="line7975"
       style="stroke:#000000;stroke-linecap:round" />
    <line
       x1="210"
       y1="20"
       x2="204"
       y2="20"
       id="line7977"
       style="stroke:#000000;stroke-linecap:round" />
    <line
       x1="216"
       y1="20"
       x2="210"
       y2="20"
       id="line7979"
       style="stroke:#000000;stroke-linecap:round" />
    <line
       x1="222"
       y1="20"
       x2="216"
       y2="20"
       id="line7981"
       style="stroke:#000000;stroke-linecap:round" />
    <line
       x1="228"
       y1="20"
       x2="222"
       y2="20"
       id="line7983"
       style="stroke:#000000;stroke-linecap:round" />
    <line
       x1="246"
       y1="20"
       x2="240"
       y2="20"
       id="line7985"
       style="stroke:#000000;stroke-linecap:round" />
    <line
       x1="252"
       y1="20"
       x2="246"
       y2="20"
       id="line7987"
       style="stroke:#000000;stroke-linecap:round" />
    <line
       x1="258"
       y1="20"
       x2="252"
       y2="20"
       id="line7989"
       style="stroke:#000000;stroke-linecap:round" />
    <line
       x1="264"
       y1="20"
       x2="258"
       y2="20"
       id="line7991"
       style="stroke:#000000;stroke-linecap:round" />
    <line
       x1="270"
       y1="20"
       x2="264"
       y2="20"
       id="line7993"
       style="stroke:#000000;stroke-linecap:round" />
    <line
       x1="276"
       y1="20"
       x2="270"
       y2="20"
       id="line7995"
       style="stroke:#000000;stroke-linecap:round" />
    <line
       x1="282"
       y1="20"
       x2="276"
       y2="20"
       id="line7997"
       style="stroke:#000000;stroke-linecap:round" />
    <line
       x1="288"
       y1="20"
       x2="282"
       y2="20"
       id="line7999"
       style="stroke:#000000;stroke-linecap:round" />
    <line
       x1="294"
       y1="20"
       x2="288"
       y2="20"
       id="line8001"
       style="stroke:#000000;stroke-linecap:round" />
    <line
       x1="300"
       y1="20"
       x2="294"
       y2="20"
       id="line8003"
       style="stroke:#000000;stroke-linecap:round" />
    <line
       x1="306"
       y1="20"
       x2="300"
       y2="20"
       id="line8005"
       style="stroke:#000000;stroke-linecap:round" />
    <line
       x1="312"
       y1="20"
       x2="306"
       y2="20"
       id="line8007"
       style="stroke:#000000;stroke-linecap:round" />
    <line
       x1="318"
       y1="20"
       x2="312"
       y2="20"
       id="line8009"
       style="stroke:#000000;stroke-linecap:round" />
    <line
       x1="324"
       y1="20"
       x2="318"
       y2="20"
       id="line8011"
       style="stroke:#000000;stroke-linecap:round" />
    <line
       x1="330"
       y1="20"
       x2="324"
       y2="20"
       id="line8013"
       style="stroke:#000000;stroke-linecap:round" />
    <line
       x1="336"
       y1="20"
       x2="330"
       y2="20"
       id="line8015"
       style="stroke:#000000;stroke-linecap:round" />
    <line
       x1="342"
       y1="20"
       x2="336"
       y2="20"
       id="line8017"
       style="stroke:#000000;stroke-linecap:round" />
    <line
       x1="348"
       y1="20"
       x2="342"
       y2="20"
       id="line8019"
       style="stroke:#000000;stroke-linecap:round" />
    <line
       x1="354"
       y1="20"
       x2="348"
       y2="20"
       id="line8021"
       style="stroke:#000000;stroke-linecap:round" />
    <line
       x1="360"
       y1="20"
       x2="354"
       y2="20"
       id="line8023"
       style="stroke:#000000;stroke-linecap:round" />
    <line
       x1="366"
       y1="20"
       x2="360"
       y2="20"
       id="line8025"
       style="stroke:#000000;stroke-linecap:round" />
    <line
       x1="372"
       y1="20"
       x2="366"
       y2="20"
       id="line8027"
       style="stroke:#000000;stroke-linecap:round" />
    <line
       x1="378"
       y1="20"
       x2="372"
       y2="20"
       id="line8029"
       style="stroke:#000000;stroke-linecap:round" />
    <line
       x1="384"
       y1="20"
       x2="378"
       y2="20"
       id="line8031"
       style="stroke:#000000;stroke-linecap:round" />
    <line
       x1="390"
       y1="20"
       x2="384"
       y2="20"
       id="line8033"
       style="stroke:#000000;stroke-linecap:round" />
    <line
       x1="396"
       y1="20"
       x2="390"
       y2="20"
       id="line8035"
       style="stroke:#000000;stroke-linecap:round" />
    <line
       x1="402"
       y1="20"
       x2="396"
       y2="20"
       id="line8037"
       style="stroke:#000000;stroke-linecap:round" />
    <line
       x1="408"
       y1="20"
       x2="402"
       y2="20"
       id="line8039"
       style="stroke:#000000;stroke-linecap:round" />
    <line
       x1="414"
       y1="20"
       x2="408"
       y2="20"
       id="line8041"
       style="stroke:#000000;stroke-linecap:round" />
    <line
       x1="18"
       y1="30"
       x2="24"
       y2="20"
       id="line8043"
       style="stroke:#000000;stroke-linecap:round" />
    <line
       x1="36"
       y1="30"
       x2="30"
       y2="30"
       id="line8045"
       style="stroke:#000000;stroke-linecap:round" />
    <line
       x1="42"
       y1="30"
       x2="36"
       y2="30"
       id="line8047"
       style="stroke:#000000;stroke-linecap:round" />
    <line
       x1="48"
       y1="30"
       x2="42"
       y2="30"
       id="line8049"
       style="stroke:#000000;stroke-linecap:round" />
    <line
       x1="54"
       y1="30"
       x2="48"
       y2="30"
       id="line8051"
       style="stroke:#000000;stroke-linecap:round" />
    <line
       x1="66"
       y1="30"
       x2="72"
       y2="20"
       id="line8053"
       style="stroke:#000000;stroke-linecap:round" />
    <line
       x1="78"
       y1="30"
       x2="72"
       y2="30"
       id="line8055"
       style="stroke:#000000;stroke-linecap:round" />
    <line
       x1="78"
       y1="30"
       x2="84"
       y2="20"
       id="line8057"
       style="stroke:#000000;stroke-linecap:round" />
    <line
       x1="90"
       y1="30"
       x2="96"
       y2="20"
       id="line8059"
       style="stroke:#000000;stroke-linecap:round" />
    <line
       x1="102"
       y1="30"
       x2="96"
       y2="30"
       id="line8061"
       style="stroke:#000000;stroke-linecap:round" />
    <line
       x1="102"
       y1="30"
       x2="108"
       y2="20"
       id="line8063"
       style="stroke:#000000;stroke-linecap:round" />
    <line
       x1="120"
       y1="30"
       x2="114"
       y2="30"
       id="line8065"
       style="stroke:#000000;stroke-linecap:round" />
    <line
       x1="126"
       y1="30"
       x2="120"
       y2="30"
       id="line8067"
       style="stroke:#000000;stroke-linecap:round" />
    <line
       x1="126"
       y1="30"
       x2="132"
       y2="20"
       id="line8069"
       style="stroke:#000000;stroke-linecap:round" />
    <line
       x1="138"
       y1="30"
       x2="144"
       y2="20"
       id="line8071"
       style="stroke:#000000;stroke-linecap:round" />
    <line
       x1="156"
       y1="30"
       x2="150"
       y2="30"
       id="line8073"
       style="stroke:#000000;stroke-linecap:round" />
    <line
       x1="162"
       y1="30"
       x2="156"
       y2="30"
       id="line8075"
       style="stroke:#000000;stroke-linecap:round" />
    <line
       x1="162"
       y1="30"
       x2="168"
       y2="20"
       id="line8077"
       style="stroke:#000000;stroke-linecap:round" />
    <line
       x1="174"
       y1="30"
       x2="180"
       y2="20"
       id="line8079"
       style="stroke:#000000;stroke-linecap:round" />
    <line
       x1="192"
       y1="30"
       x2="186"
       y2="30"
       id="line8081"
       style="stroke:#000000;stroke-linecap:round" />
    <line
       x1="198"
       y1="30"
       x2="192"
       y2="30"
       id="line8083"
       style="stroke:#000000;stroke-linecap:round" />
    <line
       x1="204"
       y1="30"
       x2="198"
       y2="30"
       id="line8085"
       style="stroke:#000000;stroke-linecap:round" />
    <line
       x1="210"
       y1="30"
       x2="204"
       y2="30"
       id="line8087"
       style="stroke:#000000;stroke-linecap:round" />
    <line
       x1="222"
       y1="30"
       x2="228"
       y2="20"
       id="line8089"
       style="stroke:#000000;stroke-linecap:round" />
    <line
       x1="234"
       y1="30"
       x2="228"
       y2="30"
       id="line8091"
       style="stroke:#000000;stroke-linecap:round" />
    <line
       x1="234"
       y1="30"
       x2="240"
       y2="20"
       id="line8093"
       style="stroke:#000000;stroke-linecap:round" />
    <line
       x1="246"
       y1="30"
       x2="252"
       y2="20"
       id="line8095"
       style="stroke:#000000;stroke-linecap:round" />
    <line
       x1="264"
       y1="30"
       x2="258"
       y2="30"
       id="line8097"
       style="stroke:#000000;stroke-linecap:round" />
    <line
       x1="270"
       y1="30"
       x2="264"
       y2="30"
       id="line8099"
       style="stroke:#000000;stroke-linecap:round" />
    <line
       x1="276"
       y1="30"
       x2="270"
       y2="30"
       id="line8101"
       style="stroke:#000000;stroke-linecap:round" />
    <line
       x1="282"
       y1="30"
       x2="276"
       y2="30"
       id="line8103"
       style="stroke:#000000;stroke-linecap:round" />
    <line
       x1="288"
       y1="30"
       x2="282"
       y2="30"
       id="line8105"
       style="stroke:#000000;stroke-linecap:round" />
    <line
       x1="324"
       y1="30"
       x2="318"
       y2="30"
       id="line8107"
       style="stroke:#000000;stroke-linecap:round" />
    <line
       x1="360"
       y1="30"
       x2="354"
       y2="30"
       id="line8109"
       style="stroke:#000000;stroke-linecap:round" />
    <line
       x1="366"
       y1="30"
       x2="360"
       y2="30"
       id="line8111"
       style="stroke:#000000;stroke-linecap:round" />
    <line
       x1="372"
       y1="30"
       x2="366"
       y2="30"
       id="line8113"
       style="stroke:#000000;stroke-linecap:round" />
    <line
       x1="378"
       y1="30"
       x2="372"
       y2="30"
       id="line8115"
       style="stroke:#000000;stroke-linecap:round" />
    <line
       x1="384"
       y1="30"
       x2="390"
       y2="20"
       id="line8117"
       style="stroke:#000000;stroke-linecap:round" />
    <line
       x1="402"
       y1="30"
       x2="396"
       y2="30"
       id="line8119"
       style="stroke:#000000;stroke-linecap:round" />
    <line
       x1="408"
       y1="30"
       x2="402"
       y2="30"
       id="line8121"
       style="stroke:#000000;stroke-linecap:round" />
    <line
       x1="408"
       y1="30"
       x2="414"
       y2="20"
       id="line8123"
       style="stroke:#000000;stroke-linecap:round" />
    <line
       x1="24"
       y1="40"
       x2="18"
       y2="30"
       id="line8125"
       style="stroke:#000000;stroke-linecap:round" />
    <line
       x1="36"
       y1="40"
       x2="30"
       y2="30"
       id="line8127"
       style="stroke:#000000;stroke-linecap:round" />
    <line
       x1="48"
       y1="40"
       x2="54"
       y2="30"
       id="line8129"
       style="stroke:#000000;stroke-linecap:round" />
    <line
       x1="66"
       y1="40"
       x2="60"
       y2="40"
       id="line8131"
       style="stroke:#000000;stroke-linecap:round" />
    <line
       x1="72"
       y1="40"
       x2="66"
       y2="40"
       id="line8133"
       style="stroke:#000000;stroke-linecap:round" />
    <line
       x1="90"
       y1="40"
       x2="84"
       y2="40"
       id="line8135"
       style="stroke:#000000;stroke-linecap:round" />
    <line
       x1="96"
       y1="40"
       x2="90"
       y2="40"
       id="line8137"
       style="stroke:#000000;stroke-linecap:round" />
    <line
       x1="114"
       y1="40"
       x2="108"
       y2="40"
       id="line8139"
       style="stroke:#000000;stroke-linecap:round" />
    <line
       x1="114"
       y1="40"
       x2="120"
       y2="30"
       id="line8141"
       style="stroke:#000000;stroke-linecap:round" />
    <line
       x1="132"
       y1="40"
       x2="138"
       y2="30"
       id="line8143"
       style="stroke:#000000;stroke-linecap:round" />
    <line
       x1="150"
       y1="40"
       x2="144"
       y2="40"
       id="line8145"
       style="stroke:#000000;stroke-linecap:round" />
    <line
       x1="150"
       y1="40"
       x2="156"
       y2="30"
       id="line8147"
       style="stroke:#000000;stroke-linecap:round" />
    <line
       x1="180"
       y1="40"
       x2="174"
       y2="30"
       id="line8149"
       style="stroke:#000000;stroke-linecap:round" />
    <line
       x1="192"
       y1="40"
       x2="186"
       y2="30"
       id="line8151"
       style="stroke:#000000;stroke-linecap:round" />
    <line
       x1="204"
       y1="40"
       x2="210"
       y2="30"
       id="line8153"
       style="stroke:#000000;stroke-linecap:round" />
    <line
       x1="222"
       y1="40"
       x2="216"
       y2="40"
       id="line8155"
       style="stroke:#000000;stroke-linecap:round" />
    <line
       x1="228"
       y1="40"
       x2="222"
       y2="40"
       id="line8157"
       style="stroke:#000000;stroke-linecap:round" />
    <line
       x1="240"
       y1="40"
       x2="246"
       y2="30"
       id="line8159"
       style="stroke:#000000;stroke-linecap:round" />
    <line
       x1="252"
       y1="40"
       x2="258"
       y2="30"
       id="line8161"
       style="stroke:#000000;stroke-linecap:round" />
    <line
       x1="294"
       y1="40"
       x2="288"
       y2="30"
       id="line8163"
       style="stroke:#000000;stroke-linecap:round" />
    <line
       x1="312"
       y1="40"
       x2="318"
       y2="30"
       id="line8165"
       style="stroke:#000000;stroke-linecap:round" />
    <line
       x1="330"
       y1="40"
       x2="324"
       y2="30"
       id="line8167"
       style="stroke:#000000;stroke-linecap:round" />
    <line
       x1="348"
       y1="40"
       x2="354"
       y2="30"
       id="line8169"
       style="stroke:#000000;stroke-linecap:round" />
    <line
       x1="366"
       y1="40"
       x2="360"
       y2="40"
       id="line8171"
       style="stroke:#000000;stroke-linecap:round" />
    <line
       x1="372"
       y1="40"
       x2="366"
       y2="40"
       id="line8173"
       style="stroke:#000000;stroke-linecap:round" />
    <line
       x1="372"
       y1="40"
       x2="378"
       y2="30"
       id="line8175"
       style="stroke:#000000;stroke-linecap:round" />
    <line
       x1="390"
       y1="40"
       x2="384"
       y2="30"
       id="line8177"
       style="stroke:#000000;stroke-linecap:round" />
    <line
       x1="402"
       y1="40"
       x2="396"
       y2="30"
       id="line8179"
       style="stroke:#000000;stroke-linecap:round" />
    <line
       x1="12"
       y1="50"
       x2="6"
       y2="50"
       id="line8181"
       style="stroke:#000000;stroke-linecap:round" />
    <line
       x1="18"
       y1="50"
       x2="12"
       y2="50"
       id="line8183"
       style="stroke:#000000;stroke-linecap:round" />
    <line
       x1="18"
       y1="50"
       x2="24"
       y2="40"
       id="line8185"
       style="stroke:#000000;stroke-linecap:round" />
    <line
       x1="30"
       y1="50"
       x2="36"
       y2="40"
       id="line8187"
       style="stroke:#000000;stroke-linecap:round" />
    <line
       x1="42"
       y1="50"
       x2="48"
       y2="40"
       id="line8189"
       style="stroke:#000000;stroke-linecap:round" />
    <line
       x1="54"
       y1="50"
       x2="60"
       y2="40"
       id="line8191"
       style="stroke:#000000;stroke-linecap:round" />
    <line
       x1="66"
       y1="50"
       x2="72"
       y2="40"
       id="line8193"
       style="stroke:#000000;stroke-linecap:round" />
    <line
       x1="78"
       y1="50"
       x2="84"
       y2="40"
       id="line8195"
       style="stroke:#000000;stroke-linecap:round" />
    <line
       x1="90"
       y1="50"
       x2="96"
       y2="40"
       id="line8197"
       style="stroke:#000000;stroke-linecap:round" />
    <line
       x1="102"
       y1="50"
       x2="108"
       y2="40"
       id="line8199"
       style="stroke:#000000;stroke-linecap:round" />
    <line
       x1="114"
       y1="50"
       x2="108"
       y2="50"
       id="line8201"
       style="stroke:#000000;stroke-linecap:round" />
    <line
       x1="120"
       y1="50"
       x2="114"
       y2="50"
       id="line8203"
       style="stroke:#000000;stroke-linecap:round" />
    <line
       x1="126"
       y1="50"
       x2="120"
       y2="50"
       id="line8205"
       style="stroke:#000000;stroke-linecap:round" />
    <line
       x1="126"
       y1="50"
       x2="132"
       y2="40"
       id="line8207"
       style="stroke:#000000;stroke-linecap:round" />
    <line
       x1="138"
       y1="50"
       x2="144"
       y2="40"
       id="line8209"
       style="stroke:#000000;stroke-linecap:round" />
    <line
       x1="150"
       y1="50"
       x2="144"
       y2="50"
       id="line8211"
       style="stroke:#000000;stroke-linecap:round" />
    <line
       x1="156"
       y1="50"
       x2="150"
       y2="50"
       id="line8213"
       style="stroke:#000000;stroke-linecap:round" />
    <line
       x1="162"
       y1="50"
       x2="156"
       y2="50"
       id="line8215"
       style="stroke:#000000;stroke-linecap:round" />
    <line
       x1="168"
       y1="50"
       x2="162"
       y2="50"
       id="line8217"
       style="stroke:#000000;stroke-linecap:round" />
    <line
       x1="174"
       y1="50"
       x2="168"
       y2="50"
       id="line8219"
       style="stroke:#000000;stroke-linecap:round" />
    <line
       x1="174"
       y1="50"
       x2="180"
       y2="40"
       id="line8221"
       style="stroke:#000000;stroke-linecap:round" />
    <line
       x1="186"
       y1="50"
       x2="192"
       y2="40"
       id="line8223"
       style="stroke:#000000;stroke-linecap:round" />
    <line
       x1="198"
       y1="50"
       x2="204"
       y2="40"
       id="line8225"
       style="stroke:#000000;stroke-linecap:round" />
    <line
       x1="210"
       y1="50"
       x2="216"
       y2="40"
       id="line8227"
       style="stroke:#000000;stroke-linecap:round" />
    <line
       x1="222"
       y1="50"
       x2="228"
       y2="40"
       id="line8229"
       style="stroke:#000000;stroke-linecap:round" />
    <line
       x1="234"
       y1="50"
       x2="240"
       y2="40"
       id="line8231"
       style="stroke:#000000;stroke-linecap:round" />
    <line
       x1="246"
       y1="50"
       x2="240"
       y2="50"
       id="line8233"
       style="stroke:#000000;stroke-linecap:round" />
    <line
       x1="246"
       y1="50"
       x2="252"
       y2="40"
       id="line8235"
       style="stroke:#000000;stroke-linecap:round" />
    <line
       x1="264"
       y1="50"
       x2="258"
       y2="50"
       id="line8237"
       style="stroke:#000000;stroke-linecap:round" />
    <line
       x1="282"
       y1="50"
       x2="276"
       y2="50"
       id="line8239"
       style="stroke:#000000;stroke-linecap:round" />
    <line
       x1="300"
       y1="50"
       x2="294"
       y2="40"
       id="line8241"
       style="stroke:#000000;stroke-linecap:round" />
    <line
       x1="306"
       y1="50"
       x2="300"
       y2="50"
       id="line8243"
       style="stroke:#000000;stroke-linecap:round" />
    <line
       x1="306"
       y1="50"
       x2="312"
       y2="40"
       id="line8245"
       style="stroke:#000000;stroke-linecap:round" />
    <line
       x1="324"
       y1="50"
       x2="318"
       y2="50"
       id="line8247"
       style="stroke:#000000;stroke-linecap:round" />
    <line
       x1="336"
       y1="50"
       x2="330"
       y2="40"
       id="line8249"
       style="stroke:#000000;stroke-linecap:round" />
    <line
       x1="342"
       y1="50"
       x2="336"
       y2="50"
       id="line8251"
       style="stroke:#000000;stroke-linecap:round" />
    <line
       x1="342"
       y1="50"
       x2="348"
       y2="40"
       id="line8253"
       style="stroke:#000000;stroke-linecap:round" />
    <line
       x1="354"
       y1="50"
       x2="360"
       y2="40"
       id="line8255"
       style="stroke:#000000;stroke-linecap:round" />
    <line
       x1="366"
       y1="50"
       x2="360"
       y2="50"
       id="line8257"
       style="stroke:#000000;stroke-linecap:round" />
    <line
       x1="372"
       y1="50"
       x2="366"
       y2="50"
       id="line8259"
       style="stroke:#000000;stroke-linecap:round" />
    <line
       x1="378"
       y1="50"
       x2="372"
       y2="50"
       id="line8261"
       style="stroke:#000000;stroke-linecap:round" />
    <line
       x1="384"
       y1="50"
       x2="378"
       y2="50"
       id="line8263"
       style="stroke:#000000;stroke-linecap:round" />
    <line
       x1="384"
       y1="50"
       x2="390"
       y2="40"
       id="line8265"
       style="stroke:#000000;stroke-linecap:round" />
    <line
       x1="396"
       y1="50"
       x2="402"
       y2="40"
       id="line8267"
       style="stroke:#000000;stroke-linecap:round" />
    <line
       x1="0"
       y1="60"
       x2="6"
       y2="50"
       id="line8269"
       style="stroke:#000000;stroke-linecap:round" />
    <line
       x1="12"
       y1="60"
       x2="6"
       y2="60"
       id="line8271"
       style="stroke:#000000;stroke-linecap:round" />
    <line
       x1="18"
       y1="60"
       x2="12"
       y2="60"
       id="line8273"
       style="stroke:#000000;stroke-linecap:round" />
    <line
       x1="24"
       y1="60"
       x2="18"
       y2="60"
       id="line8275"
       style="stroke:#000000;stroke-linecap:round" />
    <line
       x1="24"
       y1="60"
       x2="30"
       y2="50"
       id="line8277"
       style="stroke:#000000;stroke-linecap:round" />
    <line
       x1="36"
       y1="60"
       x2="42"
       y2="50"
       id="line8279"
       style="stroke:#000000;stroke-linecap:round" />
    <line
       x1="48"
       y1="60"
       x2="42"
       y2="60"
       id="line8281"
       style="stroke:#000000;stroke-linecap:round" />
    <line
       x1="48"
       y1="60"
       x2="54"
       y2="50"
       id="line8283"
       style="stroke:#000000;stroke-linecap:round" />
    <line
       x1="60"
       y1="60"
       x2="66"
       y2="50"
       id="line8285"
       style="stroke:#000000;stroke-linecap:round" />
    <line
       x1="72"
       y1="60"
       x2="66"
       y2="60"
       id="line8287"
       style="stroke:#000000;stroke-linecap:round" />
    <line
       x1="72"
       y1="60"
       x2="78"
       y2="50"
       id="line8289"
       style="stroke:#000000;stroke-linecap:round" />
    <line
       x1="96"
       y1="60"
       x2="90"
       y2="50"
       id="line8291"
       style="stroke:#000000;stroke-linecap:round" />
    <line
       x1="102"
       y1="60"
       x2="96"
       y2="60"
       id="line8293"
       style="stroke:#000000;stroke-linecap:round" />
    <line
       x1="108"
       y1="60"
       x2="102"
       y2="60"
       id="line8295"
       style="stroke:#000000;stroke-linecap:round" />
    <line
       x1="114"
       y1="60"
       x2="108"
       y2="60"
       id="line8297"
       style="stroke:#000000;stroke-linecap:round" />
    <line
       x1="120"
       y1="60"
       x2="114"
       y2="60"
       id="line8299"
       style="stroke:#000000;stroke-linecap:round" />
    <line
       x1="126"
       y1="60"
       x2="120"
       y2="60"
       id="line8301"
       style="stroke:#000000;stroke-linecap:round" />
    <line
       x1="132"
       y1="60"
       x2="126"
       y2="50"
       id="line8303"
       style="stroke:#000000;stroke-linecap:round" />
    <line
       x1="138"
       y1="60"
       x2="132"
       y2="60"
       id="line8305"
       style="stroke:#000000;stroke-linecap:round" />
    <line
       x1="144"
       y1="60"
       x2="138"
       y2="60"
       id="line8307"
       style="stroke:#000000;stroke-linecap:round" />
    <line
       x1="150"
       y1="60"
       x2="144"
       y2="60"
       id="line8309"
       style="stroke:#000000;stroke-linecap:round" />
    <line
       x1="156"
       y1="60"
       x2="150"
       y2="60"
       id="line8311"
       style="stroke:#000000;stroke-linecap:round" />
    <line
       x1="162"
       y1="60"
       x2="156"
       y2="60"
       id="line8313"
       style="stroke:#000000;stroke-linecap:round" />
    <line
       x1="168"
       y1="60"
       x2="162"
       y2="60"
       id="line8315"
       style="stroke:#000000;stroke-linecap:round" />
    <line
       x1="174"
       y1="60"
       x2="168"
       y2="60"
       id="line8317"
       style="stroke:#000000;stroke-linecap:round" />
    <line
       x1="180"
       y1="60"
       x2="174"
       y2="60"
       id="line8319"
       style="stroke:#000000;stroke-linecap:round" />
    <line
       x1="180"
       y1="60"
       x2="186"
       y2="50"
       id="line8321"
       style="stroke:#000000;stroke-linecap:round" />
    <line
       x1="192"
       y1="60"
       x2="198"
       y2="50"
       id="line8323"
       style="stroke:#000000;stroke-linecap:round" />
    <line
       x1="204"
       y1="60"
       x2="198"
       y2="60"
       id="line8325"
       style="stroke:#000000;stroke-linecap:round" />
    <line
       x1="204"
       y1="60"
       x2="210"
       y2="50"
       id="line8327"
       style="stroke:#000000;stroke-linecap:round" />
    <line
       x1="216"
       y1="60"
       x2="222"
       y2="50"
       id="line8329"
       style="stroke:#000000;stroke-linecap:round" />
    <line
       x1="228"
       y1="60"
       x2="222"
       y2="60"
       id="line8331"
       style="stroke:#000000;stroke-linecap:round" />
    <line
       x1="234"
       y1="60"
       x2="228"
       y2="60"
       id="line8333"
       style="stroke:#000000;stroke-linecap:round" />
    <line
       x1="240"
       y1="60"
       x2="234"
       y2="60"
       id="line8335"
       style="stroke:#000000;stroke-linecap:round" />
    <line
       x1="246"
       y1="60"
       x2="240"
       y2="60"
       id="line8337"
       style="stroke:#000000;stroke-linecap:round" />
    <line
       x1="252"
       y1="60"
       x2="246"
       y2="50"
       id="line8339"
       style="stroke:#000000;stroke-linecap:round" />
    <line
       x1="252"
       y1="60"
       x2="258"
       y2="50"
       id="line8341"
       style="stroke:#000000;stroke-linecap:round" />
    <line
       x1="270"
       y1="60"
       x2="264"
       y2="50"
       id="line8343"
       style="stroke:#000000;stroke-linecap:round" />
    <line
       x1="270"
       y1="60"
       x2="276"
       y2="50"
       id="line8345"
       style="stroke:#000000;stroke-linecap:round" />
    <line
       x1="288"
       y1="60"
       x2="282"
       y2="50"
       id="line8347"
       style="stroke:#000000;stroke-linecap:round" />
    <line
       x1="294"
       y1="60"
       x2="288"
       y2="60"
       id="line8349"
       style="stroke:#000000;stroke-linecap:round" />
    <line
       x1="300"
       y1="60"
       x2="294"
       y2="60"
       id="line8351"
       style="stroke:#000000;stroke-linecap:round" />
    <line
       x1="306"
       y1="60"
       x2="300"
       y2="60"
       id="line8353"
       style="stroke:#000000;stroke-linecap:round" />
    <line
       x1="312"
       y1="60"
       x2="306"
       y2="60"
       id="line8355"
       style="stroke:#000000;stroke-linecap:round" />
    <line
       x1="312"
       y1="60"
       x2="318"
       y2="50"
       id="line8357"
       style="stroke:#000000;stroke-linecap:round" />
    <line
       x1="330"
       y1="60"
       x2="324"
       y2="50"
       id="line8359"
       style="stroke:#000000;stroke-linecap:round" />
    <line
       x1="336"
       y1="60"
       x2="330"
       y2="60"
       id="line8361"
       style="stroke:#000000;stroke-linecap:round" />
    <line
       x1="342"
       y1="60"
       x2="336"
       y2="60"
       id="line8363"
       style="stroke:#000000;stroke-linecap:round" />
    <line
       x1="348"
       y1="60"
       x2="342"
       y2="50"
       id="line8365"
       style="stroke:#000000;stroke-linecap:round" />
    <line
       x1="354"
       y1="60"
       x2="348"
       y2="60"
       id="line8367"
       style="stroke:#000000;stroke-linecap:round" />
    <line
       x1="360"
       y1="60"
       x2="354"
       y2="60"
       id="line8369"
       style="stroke:#000000;stroke-linecap:round" />
    <line
       x1="366"
       y1="60"
       x2="360"
       y2="60"
       id="line8371"
       style="stroke:#000000;stroke-linecap:round" />
    <line
       x1="372"
       y1="60"
       x2="366"
       y2="60"
       id="line8373"
       style="stroke:#000000;stroke-linecap:round" />
    <line
       x1="378"
       y1="60"
       x2="372"
       y2="60"
       id="line8375"
       style="stroke:#000000;stroke-linecap:round" />
    <line
       x1="384"
       y1="60"
       x2="378"
       y2="60"
       id="line8377"
       style="stroke:#000000;stroke-linecap:round" />
    <line
       x1="390"
       y1="60"
       x2="384"
       y2="60"
       id="line8379"
       style="stroke:#000000;stroke-linecap:round" />
    <line
       x1="390"
       y1="60"
       x2="396"
       y2="50"
       id="line8381"
       style="stroke:#000000;stroke-linecap:round" />
  </g>
</svg>
